{"title":"Dhoom Machale Dhoom - Full Song - DHOOM 3 Katrina Kaif HD 1080p ","uid":9432638,"size":101546074,"categoryP":"video","categoryS":"music_videos","magnet":"?xt=urn:btih:cc9b3c4d82f4f31c7808d7c952ac5172da37e0b8&amp;dn=Dhoom+Machale+Dhoom+-+Full+Song+-+DHOOM+3+Katrina+Kaif+HD+1080p+&amp;tr=udp%3A%2F%2Ftracker.openbittorrent.com%3A80&amp;tr=udp%3A%2F%2Fopen.demonii.com%3A1337&amp;tr=udp%3A%2F%2Ftracker.coppersurfer.tk%3A6969&amp;tr=udp%3A%2F%2Fexodus.desync.com%3A6969","seeders":1,"leechers":0,"uploader":"Palash995","files":1,"time":1388835549,"description":"[center][b][size=200][color=red]Without Any reason..Don't Dislike the torrent.....please check and give your feedback[/color][/size]\n\n[img]http://i843.photobucket.com/albums/zz358/0Krish0/qiWyCf1pvj_zps682a8ccb.png[/img]\n\n[size=100][color=red]Dhoom Machale Dhoom - Full Song - DHOOM 3 Katrina Kaif HD 1080p[/color][/size]\n\n[img]http://i1.ytimg.com/vi/GUBa1wRxQko/mqdefault.jpg[/img]\n\n[IMG]http://imageshack.us/a/img89/4779/cu5a.jpg[/IMG]\n\nDHOOM:3. Starring Aamir Khan, Abhishek Bachchan, Katrina Kaif &amp; Uday Chopra.\n\nSong: Dhoom Machale Dhoom\nSinger: Aditi Singh Sharma\nMusic: Pritam\nLyrics: Sameer Anjaan\n\nProduced by Aditya Chopra, DHOOM:3 is written and directed by Vijay Krishna Acharya, who had also written DHOOM &amp; DHOOM:2. Apart from Aamir Khan, who plays the anti-hero in the film, and Katrina Kaif, both Abhishek Bachchan and Uday Chopra will continue in their now iconic roles of Jai Dixit and Ali.\n\nSceenshots:-\n\n[IMG]http://imageshack.us/a/img34/6670/f6ne.jpg[/IMG]\n\n[IMG]http://imageshack.us/a/img191/646/gcgr.jpg[/IMG]\n\n[IMG]http://imageshack.us/a/img43/4227/j46f.jpg[/IMG]\n\n[IMG]http://imageshack.us/a/img51/629/9z7z.jpg[/IMG]\n\nMedia Info:-\n\nGeneral\nComplete name                            : Dhoom Machale Dhoom - Full Song - DHOOM 3 Katrina Kaif HD 1080p {DAKU RG} {GreatPalash}.mp4\nFormat                                   : MPEG-4\nFormat profile                           : Base Media\nCodec ID                                 : isom\nFile size                                : 96.8 MiB\nDuration                                 : 3mn 15s\nOverall bit rate                         : 4 145 Kbps\nWriting application                      : Lavf53.31.100\n\nVideo\nID                                       : 1\nFormat                                   : AVC\nFormat/Info                              : Advanced Video Codec\nFormat profile                           : &lt;a class=&quot;__cf_email__&quot; href=&quot;/cdn-cgi/l/email-protection&quot; data-cfemail=&quot;5911303e3119156d7769&quot;&gt;[email&amp;#160;protected]&lt;/a&gt;&lt;script cf-hash='f9e31' type=&quot;text/javascript&quot;&gt;\n/* &lt;![CDATA[ */!function(){try{var t=&quot;currentScript&quot;in document?document.currentScript:function(){for(var t=document.getElementsByTagName(&quot;script&quot;),e=t.length;e--;)if(t[e].getAttribute(&quot;cf-hash&quot;))return t[e]}();if(t&amp;&amp;t.previousSibling){var e,r,n,i,c=t.previousSibling,a=c.getAttribute(&quot;data-cfemail&quot;);if(a){for(e=&quot;&quot;,r=parseInt(a.substr(0,2),16),n=2;a.length-n;n+=2)i=parseInt(a.substr(n,2),16)^r,e+=String.fromCharCode(i);e=document.createTextNode(e),c.parentNode.replaceChild(e,c)}}}catch(u){}}();/* ]]&gt; */&lt;/script&gt;\nFormat settings, CABAC                   : Yes\nFormat settings, ReFrames                : 2 frames\nCodec ID                                 : avc1\nCodec ID/Info                            : Advanced Video Coding\nDuration                                 : 3mn 15s\nBit rate                                 : 4 013 Kbps\nWidth                                    : 1 920 pixels\nHeight                                   : 1 080 pixels\nDisplay aspect ratio                     : 16:9\nFrame rate mode                          : Variable\nFrame rate                               : 24.000 fps\nMinimum frame rate                       : 23.980 fps\nMaximum frame rate                       : 24.028 fps\nColor space                              : YUV\nChroma subsampling                       : 4:2:0\nBit depth                                : 8 bits\nScan type                                : Progressive\nBits/(Pixel*Frame)                       : 0.081\nStream size                              : 93.7 MiB (97%)\n\nAudio\nID                                       : 2\nFormat                                   : AAC\nFormat/Info                              : Advanced Audio Codec\nFormat profile                           : LC\nCodec ID                                 : 40\nDuration                                 : 3mn 15s\nBit rate mode                            : Constant\nBit rate                                 : 126 Kbps\nChannel(s)                               : 2 channels\nChannel positions                        : Front: L R\nSampling rate                            : 44.1 KHz\nCompression mode                         : Lossy\nStream size                              : 2.93 MiB (3%)\n\n[IMG]http://imageshack.us/a/img89/4822/zka.gif[/IMG]\n\n[IMG]http://imageshack.us/a/img200/185/tj8.gif[/IMG]\n\n[IMG]http://imageshack.us/a/img593/9603/ua8.gif[/IMG]\n\n[IMG]http://imageshack.us/a/img707/5608/ysmp.png[/IMG][/b][/center]","torrent":{"xt":"urn:btih:cc9b3c4d82f4f31c7808d7c952ac5172da37e0b8","amp;dn":"Dhoom+Machale+Dhoom+-+Full+Song+-+DHOOM+3+Katrina+Kaif+HD+1080p+","amp;tr":["udp%3A%2F%2Ftracker.openbittorrent.com%3A80","udp%3A%2F%2Fopen.demonii.com%3A1337","udp%3A%2F%2Ftracker.coppersurfer.tk%3A6969","udp%3A%2F%2Fexodus.desync.com%3A6969"],"infoHash":"cc9b3c4d82f4f31c7808d7c952ac5172da37e0b8","infoHashBuffer":{"type":"Buffer","data":[204,155,60,77,130,244,243,28,120,8,215,201,82,172,81,114,218,55,224,184]},"announce":[],"urlList":[]}}